<svg width="308" height="307" viewBox="0 0 308 307" fill="none" xmlns="http://www.w3.org/2000/svg">
<path d="M180.159 28.1758L201.409 47.278L229.778 50.4708L241.465 76.3065L266.272 90.5805L266.376 118.682L283.33 141.569L271.833 167.079L278.004 194.621L256.893 213.127L251.213 240.563L224.14 248.865L207.591 271.451L179.236 268.114L154.681 281.944L129.947 267.545L101.63 270.227L84.7936 247.257L57.6115 238.328L51.5844 210.757L30.2373 191.761L36.0613 164.357L24.2404 138.578L40.9084 116.08L40.6576 87.9759L65.2876 74.2726L76.6503 48.703L104.984 46.1648L125.995 27.5505L153.132 36.6163L180.159 28.1758Z" fill="#E8C551"/>
<path d="M89.0776 99.3848C91.0566 99.8219 92.7404 100.562 94.1289 101.606C95.5228 102.624 96.5098 103.894 97.0899 105.414C97.7015 106.915 97.8048 108.631 97.3996 110.562C97.1642 111.684 96.7623 112.756 96.1938 113.777C95.6254 114.799 94.8705 115.67 93.9292 116.39C93.014 117.117 91.874 117.616 90.5091 117.888C89.1758 118.14 87.6107 118.067 85.814 117.67L81.6347 116.747L79.4914 126.965L75.4293 126.068L81.383 97.6855L89.0776 99.3848ZM86.5653 113.699C88.0235 114.021 89.2007 113.994 90.0969 113.619C91.0245 113.223 91.7267 112.668 92.2034 111.954C92.6856 111.214 93.0006 110.492 93.1484 109.787C93.2579 109.265 93.2818 108.697 93.2199 108.082C93.1636 107.442 92.9818 106.815 92.6747 106.201C92.3991 105.566 91.9556 105.018 91.3443 104.555C90.7384 104.066 89.9408 103.713 88.9513 103.494L84.6157 102.537L82.4642 112.793L86.5653 113.699ZM90.8214 117.179L95.7008 130.545L90.9356 129.492L85.9226 116.179L90.8214 117.179ZM107.469 133.553C105.594 133.139 104.056 132.417 102.855 131.387C101.66 130.332 100.835 129.071 100.379 127.605C99.9296 126.113 99.8798 124.531 100.23 122.861C100.57 121.243 101.28 119.871 102.361 118.744C103.473 117.597 104.802 116.784 106.346 116.306C107.89 115.828 109.509 115.776 111.201 116.15C113.389 116.633 115.064 117.672 116.228 119.267C117.423 120.842 118.028 122.832 118.041 125.238L103.753 126.916L103.291 124.438L114.815 122.887L113.88 123.254C113.742 122.35 113.398 121.523 112.847 120.773C112.301 119.997 111.443 119.48 110.271 119.221C108.813 118.899 107.508 119.143 106.357 119.954C105.238 120.745 104.514 121.923 104.185 123.489C103.835 125.159 104.048 126.613 104.824 127.849C105.6 129.085 106.743 129.87 108.253 130.204C108.956 130.359 109.658 130.391 110.358 130.3C111.064 130.183 111.747 129.979 112.407 129.688L113.588 133.02C112.64 133.384 111.622 133.624 110.536 133.739C109.481 133.834 108.458 133.772 107.469 133.553ZM119.156 143.958L117.322 141.013C118.209 140.554 118.956 139.913 119.564 139.092C120.172 138.27 120.605 137.246 120.863 136.02L124.279 119.734L128.224 120.605L124.775 137.047C124.38 138.927 123.737 140.437 122.844 141.577C121.95 142.718 120.721 143.512 119.156 143.958ZM125.237 113.802C125.363 113.201 125.704 112.744 126.261 112.43C126.843 112.122 127.42 112.031 127.993 112.157C128.566 112.284 129.043 112.608 129.424 113.129C129.805 113.65 129.933 114.211 129.807 114.811C129.67 115.463 129.326 115.933 128.776 116.221C128.225 116.509 127.663 116.59 127.09 116.464C126.517 116.337 126.024 116.023 125.612 115.523C125.225 115.028 125.1 114.454 125.237 113.802ZM131.096 129.637C131.441 127.993 132.141 126.604 133.196 125.472C134.257 124.313 135.556 123.508 137.095 123.056C138.634 122.604 140.289 122.573 142.059 122.965C143.856 123.361 145.339 124.085 146.508 125.135C147.703 126.191 148.526 127.465 148.976 128.957C149.457 130.429 149.526 131.987 149.181 133.631C148.836 135.275 148.146 136.679 147.112 137.843C146.083 138.982 144.809 139.793 143.291 140.277C141.804 140.74 140.149 140.771 138.327 140.368C136.608 139.989 135.133 139.294 133.9 138.285C132.694 137.281 131.824 136.037 131.291 134.554C130.789 133.051 130.724 131.412 131.096 129.637ZM135.072 130.556C134.859 131.574 134.886 132.549 135.153 133.482C135.426 134.389 135.888 135.174 136.539 135.836C137.222 136.479 138.032 136.903 138.969 137.11C140.454 137.438 141.774 137.183 142.93 136.347C144.113 135.515 144.865 134.33 145.188 132.79C145.511 131.25 145.301 129.852 144.556 128.595C143.843 127.318 142.745 126.516 141.26 126.188C140.297 125.975 139.386 126.033 138.527 126.362C137.667 126.692 136.929 127.225 136.311 127.962C135.693 128.7 135.28 129.564 135.072 130.556ZM155.623 126.656L159.568 127.528L156.135 143.891L152.19 143.02L155.623 126.656ZM156.659 120.741C156.785 120.141 157.126 119.684 157.682 119.369C158.265 119.061 158.842 118.97 159.415 119.097C159.988 119.223 160.465 119.547 160.846 120.068C161.227 120.589 161.355 121.15 161.229 121.75C161.092 122.403 160.748 122.873 160.197 123.161C159.647 123.449 159.085 123.53 158.512 123.403C157.939 123.277 157.446 122.963 157.034 122.462C156.647 121.967 156.522 121.393 156.659 120.741ZM168.558 155.155C167.308 154.879 166.247 154.481 165.375 153.961C164.498 153.466 163.734 152.888 163.083 152.225C162.458 151.569 161.87 150.865 161.319 150.115L164.229 147.932C164.872 148.893 165.576 149.69 166.343 150.324C167.135 150.963 168.091 151.406 169.211 151.654C170.981 152.045 172.436 151.929 173.575 151.307C174.713 150.684 175.443 149.671 175.765 148.268L176.66 144L176.778 144.805C176.079 145.797 175.051 146.54 173.695 147.032C172.37 147.504 170.835 147.547 169.09 147.162C167.58 146.829 166.279 146.145 165.188 145.112C164.097 144.08 163.311 142.827 162.829 141.356C162.348 139.884 162.28 138.326 162.625 136.682C162.98 134.985 163.686 133.571 164.741 132.438C165.827 131.286 167.101 130.475 168.561 130.005C170.022 129.536 171.495 129.465 172.979 129.793C174.437 130.115 175.682 130.677 176.712 131.478C177.769 132.285 178.481 133.179 178.847 134.161L178.512 134.783L179.518 131.934L183.151 132.736L179.694 149.217C179.381 150.705 178.709 151.963 177.676 152.991C176.637 154.045 175.341 154.769 173.787 155.163C172.228 155.583 170.485 155.58 168.558 155.155ZM166.633 137.444C166.414 138.488 166.451 139.479 166.745 140.418C167.065 141.362 167.576 142.172 168.279 142.846C169.014 143.5 169.889 143.939 170.904 144.163C172.285 144.468 173.53 144.374 174.641 143.882C175.758 143.364 176.604 142.582 177.177 141.534L177.884 138.167C177.781 136.97 177.306 135.923 176.458 135.026C175.617 134.103 174.532 133.495 173.204 133.202C172.188 132.977 171.215 133.008 170.283 133.294C169.377 133.585 168.592 134.081 167.928 134.781C167.289 135.486 166.858 136.374 166.633 137.444ZM192.858 134.88L192.413 138.755L192.371 138.172C193.138 137.113 194.169 136.357 195.462 135.905C196.782 135.459 198.223 135.409 199.785 135.754C201.321 136.093 202.489 136.829 203.286 137.961C204.09 139.067 204.351 140.353 204.071 141.821L201.533 153.917L197.588 153.046L199.838 142.32C199.987 141.479 199.882 140.746 199.523 140.12C199.169 139.469 198.501 139.02 197.517 138.776C196.137 138.471 194.857 138.789 193.679 139.731C192.527 140.678 191.762 142.052 191.384 143.852L189.815 151.33L185.871 150.458L189.303 134.095L192.858 134.88ZM215.3 157.367C213.425 156.953 211.887 156.231 210.687 155.202C209.491 154.146 208.666 152.885 208.211 151.419C207.761 149.927 207.711 148.346 208.062 146.675C208.401 145.057 209.111 143.685 210.192 142.558C211.305 141.411 212.633 140.599 214.177 140.12C215.722 139.642 217.34 139.59 219.033 139.964C221.22 140.447 222.895 141.486 224.059 143.081C225.255 144.656 225.859 146.646 225.872 149.052L211.584 150.73L211.123 148.253L222.646 146.701L221.711 147.068C221.574 146.164 221.229 145.337 220.678 144.587C220.133 143.811 219.274 143.294 218.102 143.035C216.644 142.713 215.339 142.958 214.189 143.769C213.069 144.559 212.345 145.737 212.017 147.303C211.666 148.973 211.879 150.427 212.655 151.663C213.431 152.899 214.574 153.684 216.084 154.018C216.788 154.173 217.489 154.205 218.189 154.114C218.895 153.997 219.578 153.793 220.239 153.502L221.42 156.835C220.471 157.199 219.454 157.438 218.367 157.553C217.312 157.648 216.29 157.586 215.3 157.367ZM232.717 147.082C231.884 146.898 231.223 146.479 230.733 145.825C230.25 145.145 230.114 144.295 230.328 143.278L230.681 141.594L233.689 142.258L233.574 142.807C233.48 143.25 233.524 143.56 233.705 143.737C233.892 143.887 234.219 144.014 234.688 144.118L245.117 146.421L232.546 158.227L231.937 157.232L242.209 159.501L241.528 162.75L226.217 159.369L239.049 147.293L239.436 148.566L232.717 147.082ZM105.702 177.074L105.257 180.949L105.216 180.366C105.983 179.307 107.013 178.551 108.307 178.1C109.626 177.654 111.067 177.603 112.63 177.948C114.166 178.288 115.333 179.023 116.131 180.155C116.934 181.261 117.196 182.548 116.915 184.015L114.378 196.112L110.433 195.241L112.683 184.514C112.832 183.673 112.727 182.94 112.368 182.314C112.014 181.663 111.345 181.215 110.361 180.97C108.981 180.665 107.702 180.984 106.524 181.925C105.371 182.872 104.606 184.246 104.229 186.047L102.66 193.524L98.715 192.653L102.148 176.289L105.702 177.074ZM120.914 188.831C121.259 187.186 121.959 185.798 123.014 184.666C124.074 183.507 125.374 182.702 126.913 182.25C128.452 181.798 130.106 181.767 131.877 182.158C133.674 182.555 135.157 183.278 136.326 184.329C137.521 185.384 138.344 186.658 138.794 188.151C139.275 189.622 139.343 191.18 138.999 192.824C138.654 194.469 137.964 195.873 136.93 197.037C135.901 198.175 134.627 198.986 133.109 199.47C131.622 199.934 129.967 199.964 128.145 199.562C126.426 199.182 124.951 198.488 123.718 197.478C122.512 196.475 121.642 195.231 121.109 193.748C120.607 192.244 120.542 190.605 120.914 188.831ZM124.89 189.75C124.677 190.767 124.704 191.743 124.971 192.676C125.244 193.583 125.706 194.367 126.357 195.03C127.04 195.672 127.85 196.097 128.787 196.304C130.271 196.632 131.592 196.377 132.748 195.54C133.931 194.709 134.683 193.523 135.006 191.984C135.329 190.444 135.119 189.046 134.374 187.789C133.661 186.512 132.563 185.709 131.078 185.382C130.115 185.169 129.204 185.227 128.344 185.556C127.485 185.885 126.747 186.418 126.129 187.156C125.511 187.893 125.098 188.758 124.89 189.75ZM147.102 204.035C145.592 203.702 144.451 202.972 143.679 201.846C142.907 200.719 142.646 199.433 142.895 197.986L145.44 185.85L149.385 186.721L147.135 197.448C147.007 198.32 147.109 199.067 147.442 199.686C147.775 200.306 148.418 200.749 149.371 201.014C150.256 201.209 151.105 201.123 151.917 200.757C152.736 200.364 153.438 199.741 154.026 198.888C154.64 198.04 155.07 197.029 155.316 195.855L156.885 188.377L160.83 189.249L157.397 205.612L153.843 204.827L154.335 200.922L154.36 201.583C153.63 202.596 152.602 203.338 151.277 203.81C149.978 204.288 148.586 204.363 147.102 204.035ZM168.249 208.378C167.051 208.113 165.949 207.651 164.943 206.992C163.943 206.307 163.15 205.477 162.564 204.501L164.72 202.601C165.26 203.403 165.859 204.054 166.517 204.555C167.201 205.061 167.869 205.385 168.52 205.529C169.275 205.696 169.969 205.699 170.602 205.539C171.241 205.352 171.634 204.906 171.782 204.202C171.902 203.627 171.8 203.141 171.475 202.741C171.176 202.347 170.762 201.983 170.233 201.648C169.704 201.312 169.133 200.981 168.521 200.655C167.26 199.912 166.349 199.056 165.79 198.086C165.262 197.095 165.116 196.039 165.351 194.917C165.532 194.056 165.91 193.293 166.485 192.628C167.092 191.942 167.888 191.463 168.872 191.188C169.861 190.888 171.007 190.882 172.309 191.169C173.454 191.422 174.453 191.793 175.304 192.281C176.16 192.744 176.911 193.387 177.555 194.212L175.531 196.264C175.161 195.691 174.675 195.215 174.073 194.836C173.503 194.437 172.96 194.167 172.445 194.026C171.742 193.87 171.094 193.905 170.502 194.129C169.916 194.327 169.565 194.701 169.45 195.249C169.335 195.797 169.425 196.281 169.718 196.7C170.017 197.094 170.431 197.459 170.96 197.794C171.52 198.109 172.078 198.437 172.633 198.778C173.749 199.434 174.626 200.187 175.265 201.039C175.93 201.895 176.125 202.976 175.852 204.281C175.644 205.273 175.218 206.135 174.574 206.866C173.93 207.598 173.072 208.118 171.999 208.428C170.957 208.716 169.707 208.7 168.249 208.378ZM195.181 182.826L198.696 183.602L194.007 205.956L190.491 205.18L195.181 182.826ZM190.822 212.953C190.093 212.792 189.535 212.464 189.149 211.969C188.768 211.448 188.646 210.862 188.783 210.209C188.914 209.583 189.258 209.112 189.814 208.798C190.402 208.464 191.047 208.374 191.75 208.53C192.453 208.685 192.98 209.033 193.329 209.575C193.711 210.096 193.835 210.67 193.704 211.296C193.567 211.948 193.221 212.432 192.664 212.746C192.139 213.039 191.525 213.109 190.822 212.953Z" fill="black"/>
</svg>
