<svg width="12" height="12" viewBox="0 0 12 12" fill="none" xmlns="http://www.w3.org/2000/svg">
<path fill-rule="evenodd" clip-rule="evenodd" d="M5.99969 0C2.68608 0 -0.000135422 2.68629 -0.000135422 6C-0.000135422 9.31371 2.68608 12 5.99969 12C9.3133 12 11.9995 9.31371 11.9995 6C11.9995 2.68629 9.3133 0 5.99969 0ZM2.21675 6.35355L5.39873 9.53553C5.59399 9.7308 5.91058 9.7308 6.10584 9.53553C6.3011 9.34027 6.3011 9.02369 6.10584 8.82843L3.77741 6.5L9.42725 6.5C9.70339 6.5 9.92725 6.27614 9.92725 6C9.92725 5.72386 9.70339 5.5 9.42725 5.5L3.77741 5.5L6.10584 3.17157C6.3011 2.97631 6.3011 2.65973 6.10584 2.46447C5.91058 2.2692 5.59399 2.2692 5.39873 2.46447L2.21675 5.64645C2.02149 5.84171 2.02149 6.15829 2.21675 6.35355Z" fill="#3A1858"/>
</svg>
